# xmcd
#
# Track frame offsets:
#	150
#	11378
#	23804
#	33846
#	48350
#	55892
#	69960
#	75791
#	84234
#	97378
#
# Disc length: 1387 seconds
#
# Revision: 1
# Processed by: cddbd v1.5.1PL2 Copyright (c) Steve Scherf et al.
# Submitted via: audiograbber 1.83.01
#
DISCID=6705690a
DTITLE=Appasjonata - O Let Us Sing
DYEAR=2005
DGENRE=Gospel
TTITLE0=Go Down, Moses
TTITLE1=Good News
TTITLE2=Nobody Knows The Trouble Live Seen
TTITLE3=Steal Away
TTITLE4=The Irish Blessing
TTITLE5=Swing Low, Sweet Chariot
TTITLE6=Gonna Study War No More
TTITLE7=O Let Us Sing
TTITLE8=Every Time I Feel The Spirit
TTITLE9=Goodnight Sweetheart
EXTD=Lubawski Chór Appasjonata. \nPOLSKA
EXTT0=
EXTT1=
EXTT2=
EXTT3=
EXTT4=
EXTT5=
EXTT6=
EXTT7=
EXTT8=
EXTT9=
PLAYORDER=
